<?xml version="1.0" encoding="UTF-8"?> <svg xmlns="http://www.w3.org/2000/svg" viewBox="0 0 147.96 125.41"><defs><style>.cls-1{fill:#fff;}.cls-2,.cls-4{fill:#7f3f97;}.cls-2,.cls-3{fill-rule:evenodd;}.cls-3{fill:#d6de23;}</style></defs><title>racimosdelsur_logo_1</title><g id="Layer_2" data-name="Layer 2"><g id="Layer_1-2" data-name="Layer 1"><path class="cls-1" d="M142.19,125.41H5.77A5.78,5.78,0,0,1,0,119.63V0L148,.72V119.63A5.77,5.77,0,0,1,142.19,125.41Z"></path><path class="cls-2" d="M49.1,31.62a23,23,0,0,0-.75,10.23,15.27,15.27,0,0,0,4.94-1.4,18,18,0,0,1,0-4.08,18.58,18.58,0,0,1,.86-3.81,26,26,0,0,0-5-.94Z"></path><path class="cls-2" d="M68.67,43.32a26.58,26.58,0,0,1,2.38,4.54,17.77,17.77,0,0,0-5.18,2.87,18.71,18.71,0,0,0-1.55,1.39,15.53,15.53,0,0,1-4.18-3,23.19,23.19,0,0,1,2.56-2.38,22.69,22.69,0,0,1,6-3.43Z"></path><path class="cls-3" d="M72.89,56.09A17.75,17.75,0,0,1,65,55.16a17.49,17.49,0,0,1-6.5-4.06c-.42-.41-.82-.85-1.2-1.3-.47.21-.94.41-1.42.6a26.27,26.27,0,0,1-3.67,1.11c.27.38.55.76.85,1.14s.6.73.91,1.08a23.15,23.15,0,0,0,1.94,1.9,22.53,22.53,0,0,0,4.29,3c.76.4,1.53.75,2.32,1.07a23.49,23.49,0,0,0,5.87,1.46,22.66,22.66,0,0,0,4.28.08,26.54,26.54,0,0,0,.2-5.12Z"></path><path class="cls-2" d="M21,61.21a22.93,22.93,0,0,0,9.86-1.55,15.18,15.18,0,0,0-2.47-4.51,17.91,17.91,0,0,1-7.59,1,25.72,25.72,0,0,0,.2,5.11Z"></path><path class="cls-3" d="M22.58,47.93a17.83,17.83,0,0,1,7.75,5.61l.42.55a17.72,17.72,0,0,1,2.4,4.49,17.48,17.48,0,0,1,.52,1.7c.51,0,1,0,1.52.08l.86.08A24.24,24.24,0,0,1,39,61a22.32,22.32,0,0,0-.63-2.78,24.31,24.31,0,0,0-.92-2.55,23.08,23.08,0,0,0-2.59-4.53l-.56-.72c-.34-.44-.7-.85-1.06-1.25a22.67,22.67,0,0,0-8.3-5.73,26.11,26.11,0,0,0-2.36,4.54Z"></path><path class="cls-2" d="M27.86,39.69a25.53,25.53,0,0,1,2.7-2.48c.38-.31.77-.6,1.17-.88a17.44,17.44,0,0,0,1,1.44,17.68,17.68,0,0,0,4.51,4,15.19,15.19,0,0,1-2,4.75,22.75,22.75,0,0,1-6.51-5.6c-.33-.41-.64-.83-.93-1.25Z"></path><path class="cls-3" d="M39.28,32.63a25.63,25.63,0,0,1,5-1,22.89,22.89,0,0,1,.86,9.29c0,.3-.08.61-.12.92a24.17,24.17,0,0,1-.53,2.5,22.93,22.93,0,0,1-1.93,4.85,23.06,23.06,0,0,1-3.2,4.53,23.68,23.68,0,0,0-1.91-3.35c-.28-.42-.58-.83-.89-1.23.36-.48.7-1,1-1.47a17.69,17.69,0,0,0,2-4.67,18.52,18.52,0,0,0,.5-2.57v-.08a17.86,17.86,0,0,0-.83-7.73Z"></path><path class="cls-3" d="M61.76,36.2a26,26,0,0,1,3.89,3.33,22.77,22.77,0,0,1-4.68,5,21.93,21.93,0,0,1-2.89,2A22.4,22.4,0,0,1,50.8,49.2a22.11,22.11,0,0,1-5.53.32A25,25,0,0,0,46.69,46c.15-.48.29-1,.41-1.47.59,0,1.18-.06,1.77-.13A17.6,17.6,0,0,0,56.1,41.8a17.48,17.48,0,0,0,1.7-1.2A17.9,17.9,0,0,0,61.76,36.2Z"></path><path class="cls-4" d="M34.06,94.27c-.25.08-.54.15-.87.22s-.66.13-1,.18-.72.09-1.1.12-.72,0-1.06,0a6.15,6.15,0,0,1-2.18-.36,4.32,4.32,0,0,1-2.63-2.65,6.18,6.18,0,0,1-.35-2.13,7.37,7.37,0,0,1,.3-2.18A4.63,4.63,0,0,1,26,85.87a3.61,3.61,0,0,1,1.38-1,5,5,0,0,1,2.92-.25,5.69,5.69,0,0,1,.93.32V80.43L34.06,80Zm-6.35-4.71a3.46,3.46,0,0,0,.59,2.1,2,2,0,0,0,1.73.79c.25,0,.48,0,.7,0a4.41,4.41,0,0,0,.52-.07v-5.1a2,2,0,0,0-.68-.28,3.19,3.19,0,0,0-.86-.12C28.38,86.85,27.71,87.76,27.71,89.56Z"></path><path class="cls-4" d="M35,89.72a6.07,6.07,0,0,1,.41-2.31,4.94,4.94,0,0,1,1.06-1.65,4.52,4.52,0,0,1,1.52-1,4.67,4.67,0,0,1,1.76-.34,4.35,4.35,0,0,1,3.33,1.29,5.31,5.31,0,0,1,1.23,3.8c0,.16,0,.34,0,.53s0,.37,0,.52H37.88a1.92,1.92,0,0,0,.81,1.38,3.27,3.27,0,0,0,1.93.51,7.58,7.58,0,0,0,1.51-.15A5.51,5.51,0,0,0,43.35,92l.37,2.28a3.91,3.91,0,0,1-.6.22,7.44,7.44,0,0,1-.84.2c-.31.06-.64.1-1,.14a9.24,9.24,0,0,1-1,.06,6.15,6.15,0,0,1-2.33-.4,4.51,4.51,0,0,1-1.64-1.08,4.38,4.38,0,0,1-1-1.63A6.69,6.69,0,0,1,35,89.72Zm6.59-1.08a2.78,2.78,0,0,0-.12-.7,1.74,1.74,0,0,0-.32-.6,1.66,1.66,0,0,0-.54-.43,1.84,1.84,0,0,0-.82-.17,1.8,1.8,0,0,0-.81.16,1.76,1.76,0,0,0-.57.42,1.94,1.94,0,0,0-.35.61,4.62,4.62,0,0,0-.18.71Z"></path><path class="cls-4" d="M49.2,94.78a7,7,0,0,1-2-.26A2.9,2.9,0,0,1,46,93.83a2.31,2.31,0,0,1-.6-1.07,5.69,5.69,0,0,1-.16-1.43V80.43L48.06,80V90.77a3.56,3.56,0,0,0,0,.68,1.08,1.08,0,0,0,.68.85,2.92,2.92,0,0,0,.81.17Z"></path><path class="cls-4" d="M57,92.35a4.21,4.21,0,0,0,1-.1A2,2,0,0,0,58.7,92a1,1,0,0,0,.34-.43,1.53,1.53,0,0,0,.09-.54,1.27,1.27,0,0,0-.6-1.07A8.82,8.82,0,0,0,56.46,89a12.71,12.71,0,0,1-1.28-.52A4.69,4.69,0,0,1,54,87.77a3.54,3.54,0,0,1-.83-1.08,3.26,3.26,0,0,1-.32-1.53,3.71,3.71,0,0,1,.34-1.63,3.33,3.33,0,0,1,1-1.24,4.27,4.27,0,0,1,1.5-.78,6.86,6.86,0,0,1,2-.27,8.08,8.08,0,0,1,2.28.28,8.53,8.53,0,0,1,1.58.62l-.85,2.32a8,8,0,0,0-1.21-.5,5.4,5.4,0,0,0-1.61-.22,2.92,2.92,0,0,0-1.52.3,1,1,0,0,0-.46.89,1,1,0,0,0,.17.6,1.61,1.61,0,0,0,.48.45,4,4,0,0,0,.72.35c.27.11.56.22.89.33a17.48,17.48,0,0,1,1.77.75,4.73,4.73,0,0,1,1.25.85,3,3,0,0,1,.75,1.15,4.73,4.73,0,0,1,.24,1.6,3.39,3.39,0,0,1-1.28,2.84,6.18,6.18,0,0,1-3.86,1,11,11,0,0,1-2.8-.36,8.08,8.08,0,0,1-.92-.32,6.6,6.6,0,0,1-.65-.32l.83-2.34a7.06,7.06,0,0,0,1.44.58A7.46,7.46,0,0,0,57,92.35Z"></path><path class="cls-4" d="M71.47,94.25a15.25,15.25,0,0,1-1.85.39,15,15,0,0,1-2.37.18,5.56,5.56,0,0,1-2.1-.34,3.23,3.23,0,0,1-1.33-1,3.74,3.74,0,0,1-.7-1.46,8.38,8.38,0,0,1-.2-1.87V84.69h2.8v5.18a4,4,0,0,0,.36,1.95,1.42,1.42,0,0,0,1.34.61l.64,0c.22,0,.43,0,.6-.07V84.69h2.81Z"></path><path class="cls-4" d="M78.85,87.17,78,87a6.33,6.33,0,0,0-1.1-.1,5.6,5.6,0,0,0-.63,0,3.25,3.25,0,0,0-.55.1v7.57H72.88V85.21c.5-.17,1.1-.34,1.78-.5A10.69,10.69,0,0,1,77,84.48l.55,0,.64.07.64.12a2.31,2.31,0,0,1,.54.16Z"></path><path class="cls-4" d="M18,65.07a8.11,8.11,0,0,1,4.51,1.05,4.2,4.2,0,0,1,.93,5.48A4.21,4.21,0,0,1,21.62,73c.26.33.54.7.83,1.12s.57.86.86,1.32.55.93.82,1.43.5,1,.73,1.46H21.57c-.23-.43-.48-.86-.72-1.3s-.5-.87-.76-1.28-.51-.81-.77-1.18-.5-.7-.75-1H17.12v4.77H14.18V65.41a17.7,17.7,0,0,1,2-.26C16.85,65.1,17.46,65.07,18,65.07Zm.17,2.51-.57,0-.48,0v3.54H18a5,5,0,0,0,2.37-.42A1.48,1.48,0,0,0,21,69.35,1.44,1.44,0,0,0,20.31,68,4.48,4.48,0,0,0,18.17,67.58Z"></path><path class="cls-4" d="M28.42,68.11a6.43,6.43,0,0,1,2.07.28,3.19,3.19,0,0,1,1.33.81,3,3,0,0,1,.71,1.28,6.23,6.23,0,0,1,.21,1.68V78c-.41.09-1,.19-1.68.31a16,16,0,0,1-2.6.18,8.41,8.41,0,0,1-1.74-.17,3.66,3.66,0,0,1-1.35-.56,2.48,2.48,0,0,1-.87-1,3.54,3.54,0,0,1-.3-1.53,2.91,2.91,0,0,1,.35-1.47,2.67,2.67,0,0,1,.93-1,4.3,4.3,0,0,1,1.34-.52,7.24,7.24,0,0,1,1.56-.16,9.05,9.05,0,0,1,1,0,4.19,4.19,0,0,1,.69.12V72a1.55,1.55,0,0,0-.43-1.15,2.09,2.09,0,0,0-1.51-.44,9.36,9.36,0,0,0-1.41.11,5.81,5.81,0,0,0-1.21.29l-.36-2.26.62-.16a7.64,7.64,0,0,1,.8-.15c.29,0,.59-.08.91-.11A7.78,7.78,0,0,1,28.42,68.11Zm.23,8.21c.27,0,.54,0,.79,0s.45,0,.6,0V74.12a4.64,4.64,0,0,0-.51-.08c-.22,0-.43,0-.62,0a5.74,5.74,0,0,0-.74,0,1.88,1.88,0,0,0-.62.18,1.1,1.1,0,0,0-.41.36,1,1,0,0,0-.15.56,1,1,0,0,0,.44.92A2.46,2.46,0,0,0,28.65,76.32Z"></path><path class="cls-4" d="M33.58,73.33a5.93,5.93,0,0,1,.35-2,4.75,4.75,0,0,1,2.61-2.78,5.39,5.39,0,0,1,2.15-.41,7.21,7.21,0,0,1,1.45.14,7.3,7.3,0,0,1,1.28.4l-.58,2.25a8.93,8.93,0,0,0-.87-.27,4.93,4.93,0,0,0-1.06-.11,2.23,2.23,0,0,0-1.85.77,3.2,3.2,0,0,0-.61,2A3.31,3.31,0,0,0,37,75.4a2.4,2.4,0,0,0,2,.73A7.16,7.16,0,0,0,40.12,76a4.31,4.31,0,0,0,1.07-.3l.4,2.3a7.46,7.46,0,0,1-1.23.35,8.12,8.12,0,0,1-1.62.15,6.07,6.07,0,0,1-2.33-.4,4.23,4.23,0,0,1-2.54-2.75A7.12,7.12,0,0,1,33.58,73.33Z"></path><path class="cls-4" d="M45.32,65.51a1.54,1.54,0,0,1-.5,1.21,1.71,1.71,0,0,1-1.18.45,1.68,1.68,0,0,1-1.17-.45,1.51,1.51,0,0,1-.5-1.21,1.53,1.53,0,0,1,.5-1.22,1.72,1.72,0,0,1,1.17-.44,1.74,1.74,0,0,1,1.18.44A1.56,1.56,0,0,1,45.32,65.51Zm-.26,12.77H42.25V68.37h2.81Z"></path><path class="cls-4" d="M51.91,73a3.81,3.81,0,0,0-.35-1.93,1.3,1.3,0,0,0-1.19-.56l-.55,0-.54.06v7.65H46.47V68.71l.84-.2,1-.19c.36,0,.73-.1,1.11-.13s.74,0,1.11,0a4.74,4.74,0,0,1,1.74.27,3.85,3.85,0,0,1,1.1.65,4.74,4.74,0,0,1,1.39-.68,5.19,5.19,0,0,1,3.39.09,2.92,2.92,0,0,1,1.21.93A3.5,3.5,0,0,1,60,70.84a8.76,8.76,0,0,1,.17,1.85v5.59h-2.8V73A3.93,3.93,0,0,0,57,71.1a1.3,1.3,0,0,0-1.2-.56,2.77,2.77,0,0,0-.63.11,2.81,2.81,0,0,0-.67.28,3.94,3.94,0,0,1,.17.92c0,.32,0,.66,0,1v5.41H51.91Z"></path><path class="cls-4" d="M70.75,73.31a6.36,6.36,0,0,1-.34,2.14,4.47,4.47,0,0,1-1,1.65,4.36,4.36,0,0,1-1.53,1.07,5.18,5.18,0,0,1-2,.37,5.11,5.11,0,0,1-2-.37,4.36,4.36,0,0,1-1.53-1.07,4.8,4.8,0,0,1-1-1.65A6.12,6.12,0,0,1,61,73.31a5.81,5.81,0,0,1,.37-2.13,4.65,4.65,0,0,1,2.56-2.7,5.38,5.38,0,0,1,3.92,0,4.51,4.51,0,0,1,1.53,1.06,4.76,4.76,0,0,1,1,1.64A6,6,0,0,1,70.75,73.31Zm-2.86,0a3.52,3.52,0,0,0-.52-2,1.71,1.71,0,0,0-1.48-.74,1.73,1.73,0,0,0-1.49.74,3.52,3.52,0,0,0-.52,2,3.59,3.59,0,0,0,.52,2.06,1.7,1.7,0,0,0,1.49.76,1.68,1.68,0,0,0,1.48-.76A3.59,3.59,0,0,0,67.89,73.31Z"></path><path class="cls-4" d="M74.54,76.27a2.59,2.59,0,0,0,1.09-.16.58.58,0,0,0,.32-.58.71.71,0,0,0-.41-.59,8.48,8.48,0,0,0-1.27-.58,11.19,11.19,0,0,1-1.19-.51,3.4,3.4,0,0,1-.92-.63,2.51,2.51,0,0,1-.58-.87,3.23,3.23,0,0,1-.21-1.23,2.64,2.64,0,0,1,1-2.2,4.5,4.5,0,0,1,2.84-.81,8.94,8.94,0,0,1,1.74.16,8.12,8.12,0,0,1,1.32.35l-.49,2.18c-.33-.11-.69-.21-1.07-.3a5.63,5.63,0,0,0-1.29-.13c-.88,0-1.32.24-1.32.73a.75.75,0,0,0,.06.31.66.66,0,0,0,.23.25,2.59,2.59,0,0,0,.46.26c.19.1.44.2.74.32a12.3,12.3,0,0,1,1.53.67,3.53,3.53,0,0,1,1,.72,2.36,2.36,0,0,1,.49.85,4,4,0,0,1,.14,1.09,2.52,2.52,0,0,1-1.1,2.22,5.53,5.53,0,0,1-3.12.75,9.1,9.1,0,0,1-2.2-.22,9,9,0,0,1-1.21-.38l.47-2.28a9.58,9.58,0,0,0,1.47.45A7.63,7.63,0,0,0,74.54,76.27Z"></path><path class="cls-4" d="M89.34,75.51a3,3,0,0,1-1.18-.22,2.47,2.47,0,0,1-.91-.61,2.87,2.87,0,0,1-.59-1,4.33,4.33,0,0,1-.2-1.36,3.68,3.68,0,0,1,.23-1.37,3.16,3.16,0,0,1,.63-1,2.91,2.91,0,0,1,.93-.62,3,3,0,0,1,1.13-.21,4.61,4.61,0,0,1,.68,0,4.12,4.12,0,0,1,.53.13,2.43,2.43,0,0,1,.37.14,1.21,1.21,0,0,1,.19.11l-.24.7-.23-.11L90.34,70l-.42-.1a3.42,3.42,0,0,0-.45,0,2.23,2.23,0,0,0-.88.17,1.68,1.68,0,0,0-.66.49,2.28,2.28,0,0,0-.42.77,3.23,3.23,0,0,0-.14,1,3.92,3.92,0,0,0,.12,1,2.23,2.23,0,0,0,.39.77,1.76,1.76,0,0,0,.64.5,2,2,0,0,0,.89.18,3.27,3.27,0,0,0,1-.13,3.59,3.59,0,0,0,.59-.22l.22.71-.22.11a3.79,3.79,0,0,1-.4.13,5.26,5.26,0,0,1-.56.1A4.83,4.83,0,0,1,89.34,75.51Z"></path><path class="cls-4" d="M93.5,75.46a1.58,1.58,0,0,1-1.07-.32,1.28,1.28,0,0,1-.32-1V68.66l.82-.14V74a1.58,1.58,0,0,0,0,.34.72.72,0,0,0,.12.21.53.53,0,0,0,.21.12,2.19,2.19,0,0,0,.33.06Z"></path><path class="cls-4" d="M98.19,75.24c-.19.05-.43.1-.74.15a6.81,6.81,0,0,1-1.08.08,2.33,2.33,0,0,1-.89-.15,1.52,1.52,0,0,1-.58-.44,1.81,1.81,0,0,1-.32-.67,3.67,3.67,0,0,1-.1-.85V70.78h.83v2.4a2.05,2.05,0,0,0,.26,1.2,1,1,0,0,0,.89.37h.28l.26,0,.23,0,.14,0V70.78h.82ZM97.41,69l-1.25,1.21-.41-.37,1.13-1.36Z"></path><path class="cls-4" d="M100.68,74.78a1.58,1.58,0,0,0,.74-.13.45.45,0,0,0,.24-.42.56.56,0,0,0-.23-.48,3.74,3.74,0,0,0-.79-.4l-.51-.21a2.17,2.17,0,0,1-.42-.27,1.09,1.09,0,0,1-.28-.36,1.14,1.14,0,0,1-.11-.52,1.17,1.17,0,0,1,.45-1,2,2,0,0,1,1.23-.35,2.55,2.55,0,0,1,.39,0l.36,0,.3.07.2.06-.15.71a1.93,1.93,0,0,0-.42-.15,2.68,2.68,0,0,0-.68-.07,1.26,1.26,0,0,0-.6.13.46.46,0,0,0-.25.43.59.59,0,0,0,0,.27.67.67,0,0,0,.18.2,2,2,0,0,0,.3.18l.42.16.58.25a2.06,2.06,0,0,1,.44.27,1.21,1.21,0,0,1,.28.39,1.47,1.47,0,0,1,.09.55,1.07,1.07,0,0,1-.47,1,2.31,2.31,0,0,1-1.34.33,3.47,3.47,0,0,1-1-.1l-.47-.16.15-.7.45.16A2.68,2.68,0,0,0,100.68,74.78Z"></path><path class="cls-4" d="M104.31,70.78h1.74v.69h-1.74v2.12a2.26,2.26,0,0,0,.06.57.76.76,0,0,0,.16.35.48.48,0,0,0,.26.18,1.06,1.06,0,0,0,.37.06,1.65,1.65,0,0,0,.6-.09l.31-.12.16.68a2.93,2.93,0,0,1-.43.16,2.55,2.55,0,0,1-.71.09,2.11,2.11,0,0,1-.77-.12,1.12,1.12,0,0,1-.49-.36,1.29,1.29,0,0,1-.26-.58,4,4,0,0,1-.08-.81V69.5l.82-.14Z"></path><path class="cls-4" d="M106.75,73.09a2.93,2.93,0,0,1,.18-1.07,2.18,2.18,0,0,1,.47-.75,1.8,1.8,0,0,1,.67-.45,2.07,2.07,0,0,1,.77-.15,1.8,1.8,0,0,1,1.43.57,2.69,2.69,0,0,1,.49,1.77v.13a.81.81,0,0,1,0,.16h-3.14a1.62,1.62,0,0,0,.41,1.08,1.51,1.51,0,0,0,1.13.38,3,3,0,0,0,.73-.08,2.32,2.32,0,0,0,.45-.15l.11.69a2.07,2.07,0,0,1-.52.17,3.7,3.7,0,0,1-.85.09,2.73,2.73,0,0,1-1-.18,2,2,0,0,1-.72-.5,1.94,1.94,0,0,1-.42-.76A3.21,3.21,0,0,1,106.75,73.09Zm3.16-.45a1.42,1.42,0,0,0-.28-.92,1,1,0,0,0-.79-.36,1.12,1.12,0,0,0-.5.11,1.19,1.19,0,0,0-.37.29,1.18,1.18,0,0,0-.23.41,1.53,1.53,0,0,0-.11.47Z"></path><path class="cls-4" d="M113.64,70.68l.24,0,.27,0,.25,0,.16,0-.14.71-.32-.08a3,3,0,0,0-.58,0,2.31,2.31,0,0,0-.46,0l-.29.06v3.86H112V71a4,4,0,0,1,.72-.2A4.74,4.74,0,0,1,113.64,70.68Z"></path><path class="cls-4" d="M86.39,83.09A2.93,2.93,0,0,1,86.57,82a2.18,2.18,0,0,1,.47-.75,1.89,1.89,0,0,1,.67-.45,2.08,2.08,0,0,1,.78-.15,1.77,1.77,0,0,1,1.42.57A2.69,2.69,0,0,1,90.4,83v.13a.81.81,0,0,1,0,.16H87.25a1.62,1.62,0,0,0,.42,1.08,1.5,1.5,0,0,0,1.13.38,3.07,3.07,0,0,0,.73-.08,2.44,2.44,0,0,0,.44-.15l.12.69a2.18,2.18,0,0,1-.53.17,3.63,3.63,0,0,1-.85.09,2.73,2.73,0,0,1-1-.18,2,2,0,0,1-.72-.5,1.94,1.94,0,0,1-.42-.76A3.21,3.21,0,0,1,86.39,83.09Zm3.16-.45a1.42,1.42,0,0,0-.28-.92,1,1,0,0,0-.79-.36,1.12,1.12,0,0,0-.5.11,1.32,1.32,0,0,0-.37.29,1.18,1.18,0,0,0-.23.41,1.89,1.89,0,0,0-.11.47Z"></path><path class="cls-4" d="M91.59,80.91l.75-.15a6.81,6.81,0,0,1,1.08-.08,2.34,2.34,0,0,1,.9.16,1.36,1.36,0,0,1,.58.43,1.66,1.66,0,0,1,.31.67,3.76,3.76,0,0,1,.09.85v2.58h-.82V83a3.73,3.73,0,0,0-.06-.72,1.29,1.29,0,0,0-.19-.49.82.82,0,0,0-.36-.27,1.66,1.66,0,0,0-.54-.08h-.28l-.27,0-.23,0-.14,0v3.87h-.82Z"></path><path class="cls-4" d="M100.71,83.08a2.86,2.86,0,0,1-.16,1,2.3,2.3,0,0,1-.44.76,2.12,2.12,0,0,1-.69.49,2.29,2.29,0,0,1-1.73,0,2.08,2.08,0,0,1-.68-.49,2.32,2.32,0,0,1-.45-.76,3.14,3.14,0,0,1,0-2,2.22,2.22,0,0,1,.45-.76,1.94,1.94,0,0,1,.68-.49,2.29,2.29,0,0,1,1.73,0,2,2,0,0,1,.69.49,2.2,2.2,0,0,1,.44.76A2.86,2.86,0,0,1,100.71,83.08Zm-.86,0a1.91,1.91,0,0,0-.35-1.23,1.1,1.1,0,0,0-.94-.46,1.12,1.12,0,0,0-1,.46,2.34,2.34,0,0,0,0,2.46,1.14,1.14,0,0,0,1,.45,1.12,1.12,0,0,0,.94-.45A1.91,1.91,0,0,0,99.85,83.08Z"></path><path class="cls-4" d="M102.64,80.78h1.74v.69h-1.74v2.12a2.32,2.32,0,0,0,0,.57.76.76,0,0,0,.16.35.51.51,0,0,0,.26.18,1.06,1.06,0,0,0,.37.06,1.65,1.65,0,0,0,.6-.09l.31-.12.16.68a2.56,2.56,0,0,1-1.14.25,2.11,2.11,0,0,1-.77-.12,1.12,1.12,0,0,1-.49-.36,1.41,1.41,0,0,1-.26-.58,4,4,0,0,1-.08-.81V79.5l.83-.14Z"></path><path class="cls-4" d="M109.07,85.24a7.25,7.25,0,0,1-.74.15,6.77,6.77,0,0,1-1.07.08,2.35,2.35,0,0,1-.9-.15,1.52,1.52,0,0,1-.58-.44,1.81,1.81,0,0,1-.32-.67,3.7,3.7,0,0,1-.09-.85V80.78h.82v2.4a2.13,2.13,0,0,0,.26,1.2,1,1,0,0,0,.89.37h.28l.26,0,.23,0,.14,0V80.78h.82Z"></path><path class="cls-4" d="M112.18,80.68l.25,0,.27,0,.24,0a.46.46,0,0,1,.16,0l-.14.71-.32-.08a3,3,0,0,0-.58,0,2.49,2.49,0,0,0-.46,0l-.29.06v3.86h-.82V81a4,4,0,0,1,.72-.2A4.74,4.74,0,0,1,112.18,80.68Z"></path><path class="cls-4" d="M115.38,79l-1.25,1.21-.41-.37,1.13-1.36Zm-.66,6.33h-.82V80.78h.82Z"></path><path class="cls-4" d="M117.2,84.78a1.63,1.63,0,0,0,.75-.13.45.45,0,0,0,.24-.42.57.57,0,0,0-.24-.48,3.74,3.74,0,0,0-.79-.4l-.5-.21a1.69,1.69,0,0,1-.42-.27,1.28,1.28,0,0,1-.29-.36,1.15,1.15,0,0,1-.1-.52,1.17,1.17,0,0,1,.45-1,2,2,0,0,1,1.23-.35,2.55,2.55,0,0,1,.39,0l.36,0a1.77,1.77,0,0,1,.29.07l.2.06-.15.71a1.81,1.81,0,0,0-.41-.15,2.73,2.73,0,0,0-.68-.07,1.26,1.26,0,0,0-.6.13.46.46,0,0,0-.26.43.6.6,0,0,0,.06.27.63.63,0,0,0,.17.2,2,2,0,0,0,.3.18l.42.16.59.25a2,2,0,0,1,.43.27,1.08,1.08,0,0,1,.28.39,1.29,1.29,0,0,1,.1.55,1.1,1.1,0,0,1-.47,1,2.36,2.36,0,0,1-1.35.33,3.39,3.39,0,0,1-1-.1,3.91,3.91,0,0,1-.47-.16l.15-.7.45.16A2.61,2.61,0,0,0,117.2,84.78Z"></path><path class="cls-4" d="M120.84,80.78h1.74v.69h-1.74v2.12a2.94,2.94,0,0,0,0,.57.88.88,0,0,0,.16.35.5.5,0,0,0,.27.18,1,1,0,0,0,.37.06,1.63,1.63,0,0,0,.59-.09l.32-.12.16.68a3.17,3.17,0,0,1-.44.16,2.48,2.48,0,0,1-.7.09,2.17,2.17,0,0,1-.78-.12,1.18,1.18,0,0,1-.49-.36,1.41,1.41,0,0,1-.26-.58,4,4,0,0,1-.07-.81V79.5l.82-.14Z"></path><path class="cls-4" d="M124,80a.52.52,0,0,1-.38-.15.5.5,0,0,1-.15-.39.53.53,0,0,1,.15-.39.52.52,0,0,1,.38-.15.51.51,0,0,1,.37.15.5.5,0,0,1,.16.39.47.47,0,0,1-.16.39A.51.51,0,0,1,124,80Zm.41,5.42h-.82V80.78h.82Z"></path><path class="cls-4" d="M127.85,85.48a2.48,2.48,0,0,1-1-.18,1.85,1.85,0,0,1-.7-.49,2,2,0,0,1-.43-.76,3.22,3.22,0,0,1-.14-1,3.05,3.05,0,0,1,.15-1,2.48,2.48,0,0,1,.44-.76,2,2,0,0,1,.69-.5,2.29,2.29,0,0,1,.92-.18,3.31,3.31,0,0,1,.62,0,2.48,2.48,0,0,1,.59.17l-.19.69a2.72,2.72,0,0,0-.43-.14,2.76,2.76,0,0,0-.51,0,1.32,1.32,0,0,0-1.06.43,1.94,1.94,0,0,0-.36,1.27,2.49,2.49,0,0,0,.08.68,1.38,1.38,0,0,0,.26.53,1.35,1.35,0,0,0,.47.34,1.78,1.78,0,0,0,.69.12,2.22,2.22,0,0,0,.59-.07,1.81,1.81,0,0,0,.41-.13l.12.69a.76.76,0,0,1-.2.08l-.31.07c-.11,0-.23,0-.35.06Z"></path><path class="cls-4" d="M133.9,83.08a2.86,2.86,0,0,1-.16,1,2.3,2.3,0,0,1-.44.76,2.12,2.12,0,0,1-.69.49,2.2,2.2,0,0,1-.86.17,2.25,2.25,0,0,1-.87-.17,2.08,2.08,0,0,1-.68-.49,2.32,2.32,0,0,1-.45-.76,3.14,3.14,0,0,1,0-2,2.22,2.22,0,0,1,.45-.76,1.94,1.94,0,0,1,.68-.49,2.08,2.08,0,0,1,.87-.17,2,2,0,0,1,.86.17,2,2,0,0,1,.69.49,2.2,2.2,0,0,1,.44.76A2.86,2.86,0,0,1,133.9,83.08Zm-.86,0a2,2,0,0,0-.34-1.23,1.13,1.13,0,0,0-.95-.46,1.12,1.12,0,0,0-.95.46,2.34,2.34,0,0,0,0,2.46,1.14,1.14,0,0,0,.95.45,1.15,1.15,0,0,0,.95-.45A2,2,0,0,0,133,83.08Z"></path><path class="cls-4" d="M89.62,88.66l.82-.14v6.72c-.19.05-.43.11-.72.16a6.21,6.21,0,0,1-1,.08,2.59,2.59,0,0,1-1-.17,2,2,0,0,1-.73-.47,2.15,2.15,0,0,1-.46-.76,2.87,2.87,0,0,1-.17-1,3.24,3.24,0,0,1,.14-1,2.2,2.2,0,0,1,.4-.76,1.86,1.86,0,0,1,.65-.5,2.06,2.06,0,0,1,.88-.17,2.11,2.11,0,0,1,.7.1,2.37,2.37,0,0,1,.46.2Zm0,3.09a1.92,1.92,0,0,0-.44-.24,1.7,1.7,0,0,0-.61-.11,1.28,1.28,0,0,0-.61.13,1.07,1.07,0,0,0-.41.35,1.7,1.7,0,0,0-.23.53,2.87,2.87,0,0,0-.07.67,1.76,1.76,0,0,0,.4,1.24,1.37,1.37,0,0,0,1.06.44,3,3,0,0,0,.56,0l.35-.06Z"></path><path class="cls-4" d="M91.6,93.09A3.16,3.16,0,0,1,91.77,92a2.34,2.34,0,0,1,.47-.75,2,2,0,0,1,.67-.45,2.12,2.12,0,0,1,.78-.15,1.77,1.77,0,0,1,1.42.57,2.69,2.69,0,0,1,.5,1.77v.13c0,.06,0,.11,0,.16H92.45a1.67,1.67,0,0,0,.42,1.08,1.51,1.51,0,0,0,1.13.38,3,3,0,0,0,.73-.08,2.44,2.44,0,0,0,.44-.15l.12.69a2.18,2.18,0,0,1-.53.17,3.63,3.63,0,0,1-.85.09,2.73,2.73,0,0,1-1-.18,2,2,0,0,1-.72-.5,1.94,1.94,0,0,1-.42-.76A3.21,3.21,0,0,1,91.6,93.09Zm3.15-.45a1.37,1.37,0,0,0-.28-.92,1,1,0,0,0-.79-.36,1.15,1.15,0,0,0-.5.11,1.28,1.28,0,0,0-.36.29,1.2,1.2,0,0,0-.24.41,2.47,2.47,0,0,0-.11.47Z"></path><path class="cls-4" d="M98.88,89.25h.86v6.12h-.86Z"></path><path class="cls-4" d="M103.2,95.48a2.48,2.48,0,0,1-1-.18,1.93,1.93,0,0,1-.7-.49,2,2,0,0,1-.43-.76,3.22,3.22,0,0,1-.14-1,3.05,3.05,0,0,1,.15-1,2.48,2.48,0,0,1,.44-.76,2,2,0,0,1,.69-.5,2.29,2.29,0,0,1,.92-.18,3.31,3.31,0,0,1,.62,0,2.48,2.48,0,0,1,.59.17l-.19.69a2.72,2.72,0,0,0-.43-.14,2.76,2.76,0,0,0-.51,0,1.32,1.32,0,0,0-1.06.43,1.94,1.94,0,0,0-.36,1.27,2.49,2.49,0,0,0,.08.68,1.54,1.54,0,0,0,.26.53,1.35,1.35,0,0,0,.47.34,1.78,1.78,0,0,0,.69.12,2.22,2.22,0,0,0,.59-.07,1.81,1.81,0,0,0,.41-.13l.12.69a.76.76,0,0,1-.2.08l-.3.07c-.12,0-.24,0-.36.06Z"></path><path class="cls-4" d="M106.8,90.67a2.51,2.51,0,0,1,.83.12,1.37,1.37,0,0,1,.55.37,1.32,1.32,0,0,1,.29.55,2.65,2.65,0,0,1,.09.71v2.87l-.29,0-.43.06-.52,0-.55,0a3.24,3.24,0,0,1-.72-.08,1.68,1.68,0,0,1-.56-.25,1.13,1.13,0,0,1-.37-.46A1.53,1.53,0,0,1,105,94a1.33,1.33,0,0,1,.15-.65,1.18,1.18,0,0,1,.42-.44,2.17,2.17,0,0,1,.62-.25,3.5,3.5,0,0,1,.74-.08l.26,0,.25,0,.2,0,.13,0v-.23a1.75,1.75,0,0,0-.05-.4.9.9,0,0,0-.16-.36.76.76,0,0,0-.31-.24,1.09,1.09,0,0,0-.52-.1,3.76,3.76,0,0,0-.71.06,2.74,2.74,0,0,0-.45.12l-.1-.68a2.71,2.71,0,0,1,.53-.14A5.13,5.13,0,0,1,106.8,90.67Zm.07,4.11h.51l.38,0V93.35a1.11,1.11,0,0,0-.29-.07,3.23,3.23,0,0,0-.48,0,2.68,2.68,0,0,0-.39,0,1.41,1.41,0,0,0-.38.11.82.82,0,0,0-.29.23.6.6,0,0,0-.11.39.66.66,0,0,0,.28.61A1.52,1.52,0,0,0,106.87,94.78Z"></path><path class="cls-4" d="M110.89,94.9a.57.57,0,0,1-.16.41.54.54,0,0,1-.43.18.55.55,0,0,1-.43-.18.57.57,0,0,1-.16-.41.6.6,0,0,1,.16-.42.55.55,0,0,1,.43-.18.54.54,0,0,1,.43.18A.6.6,0,0,1,110.89,94.9Z"></path></g></g></svg> 